<!DOCTYPE svg PUBLIC "-//W3C//DTD SVG 20010904//EN" "http://www.w3.org/TR/2001/REC-SVG-20010904/DTD/svg10.dtd">
<svg version="1.0" xmlns="http://www.w3.org/2000/svg" width="36px" height="43px" viewBox="0 0 360 430" preserveAspectRatio="xMidYMid meet">
<g id="layer101" fill="#010101" stroke="none">
 <path d="M7 423 c-4 -3 -7 -97 -7 -209 0 -175 2 -203 16 -208 23 -9 317 -7 332 2 9 7 12 56 10 213 l-3 204 -24 3 c-18 3 -39 -11 -87 -59 l-64 -63 -63 62 c-57 57 -92 74 -110 55z m131 -137 l42 -40 43 40 c23 22 54 50 70 63 l27 24 0 -161 0 -162 -140 0 -140 0 0 162 0 161 28 -24 c15 -13 46 -41 70 -63z"/>
 </g>

</svg>