<!DOCTYPE svg PUBLIC "-//W3C//DTD SVG 20010904//EN" "http://www.w3.org/TR/2001/REC-SVG-20010904/DTD/svg10.dtd">
<svg version="1.0" xmlns="http://www.w3.org/2000/svg" width="44px" height="44px" viewBox="0 0 440 440" preserveAspectRatio="xMidYMid meet">
<g id="layer101" fill="#010101" stroke="none">
 <path d="M14 422 c-10 -9 -14 -42 -14 -112 0 -161 38 -234 145 -280 50 -22 80 -25 190 -20 72 4 85 12 85 55 0 17 5 57 11 87 9 46 8 65 -6 114 -21 73 -89 146 -150 163 -58 15 -244 11 -261 -7z m290 -60 c23 -15 50 -47 64 -74 22 -43 24 -54 17 -137 l-7 -89 -76 -8 c-52 -4 -87 -3 -111 6 -110 38 -145 95 -147 237 l-1 92 66 4 c105 6 152 -1 195 -31z"/>
 </g>

</svg>