<!DOCTYPE svg PUBLIC "-//W3C//DTD SVG 20010904//EN" "http://www.w3.org/TR/2001/REC-SVG-20010904/DTD/svg10.dtd">
<svg version="1.0" xmlns="http://www.w3.org/2000/svg" width="200px" height="200px" viewBox="0 0 2000 2000" preserveAspectRatio="xMidYMid meet">
<g id="layer101" fill="#929292" stroke="none">
 <path d="M845 1977 c-15 -23 -14 -29 23 -113 35 -81 41 -89 68 -92 20 -2 36 4 49 18 16 18 17 24 6 58 -7 21 -25 62 -39 92 -23 48 -31 55 -59 58 -25 2 -35 -2 -48 -21z"/>
 <path d="M1017 1993 c-13 -12 -7 -49 24 -138 36 -107 75 -261 84 -340 6 -43 13 -60 31 -71 27 -18 60 -11 74 17 20 37 -53 368 -110 496 -18 40 -21 43 -58 43 -21 0 -42 -3 -45 -7z"/>
 <path d="M1212 1968 c-18 -18 -15 -53 13 -148 14 -47 35 -137 47 -200 42 -223 23 -620 -34 -735 -57 -113 -167 -165 -300 -143 -77 14 -98 4 -98 -43 0 -49 37 -64 160 -64 95 0 111 3 162 28 73 36 160 128 186 199 57 154 73 529 33 762 -22 128 -61 277 -84 326 -14 28 -64 39 -85 18z"/>
 <path d="M679 1949 c-14 -27 -9 -45 35 -144 78 -176 113 -393 95 -591 -23 -261 -23 -265 3 -314 37 -69 94 -104 176 -108 56 -3 74 0 112 20 91 49 119 125 141 381 10 122 9 140 -5 162 -10 15 -26 25 -40 25 -42 0 -52 -26 -64 -175 -15 -182 -29 -249 -59 -279 -41 -42 -105 -42 -147 0 -32 33 -35 55 -19 160 10 61 13 146 10 269 -4 151 -9 196 -31 284 -28 110 -96 283 -123 313 -23 25 -69 23 -84 -3z"/>
 <path d="M528 1886 c-9 -21 -5 -39 31 -120 71 -163 84 -225 85 -431 0 -99 -3 -227 -8 -285 -7 -87 -6 -115 8 -162 31 -106 107 -175 152 -137 16 13 19 65 4 74 -16 10 -49 79 -59 126 -7 29 -5 74 5 148 37 282 1 539 -107 754 -27 53 -32 57 -64 57 -28 0 -38 -5 -47 -24z"/>
 <path d="M1411 1894 c-27 -19 -26 -33 8 -196 49 -233 49 -522 1 -760 -22 -105 -18 -131 20 -143 54 -17 78 37 105 235 47 341 -14 880 -99 880 -6 0 -22 -7 -35 -16z"/>
 <path d="M397 1812 c-23 -25 -21 -44 7 -100 13 -26 31 -72 41 -102 26 -84 65 -110 106 -69 16 16 19 27 13 52 -10 50 -72 198 -90 219 -22 23 -56 23 -77 0z"/>
 <path d="M1595 1747 c-12 -19 -13 -34 -5 -77 45 -236 24 -685 -40 -867 -41 -118 -121 -218 -232 -294 -70 -48 -81 -74 -44 -106 15 -13 31 -23 35 -23 23 0 135 86 198 152 157 167 213 380 213 810 0 213 -19 379 -45 408 -24 27 -61 25 -80 -3z"/>
 <path d="M270 1705 c-15 -19 -9 -59 24 -152 31 -87 45 -211 35 -313 -21 -202 -22 -315 -5 -394 29 -129 85 -227 190 -332 153 -153 302 -211 519 -202 134 5 171 19 175 64 5 52 -14 59 -121 46 -194 -24 -356 28 -492 159 -99 95 -155 206 -175 349 -8 54 -6 96 6 182 11 77 15 155 11 243 -4 114 -8 142 -37 229 -19 55 -42 108 -52 118 -22 22 -61 23 -78 3z"/>
 <path d="M958 1709 c-23 -13 -23 -45 -1 -145 21 -100 23 -340 4 -481 -16 -115 -10 -133 39 -133 39 0 50 18 65 107 32 186 28 404 -11 576 -19 81 -48 104 -96 76z"/>
 <path d="M154 1555 c-15 -23 -15 -28 1 -72 25 -74 29 -166 11 -282 -50 -325 18 -576 209 -780 111 -119 189 -160 215 -112 20 38 11 59 -39 95 -203 149 -323 430 -291 679 33 248 32 347 0 433 -25 66 -76 85 -106 39z"/>
 <path d="M1790 1530 c-18 -18 -20 -32 -19 -136 1 -106 4 -118 25 -142 22 -26 24 -26 51 -12 l28 16 3 127 c2 116 1 128 -18 147 -25 25 -45 25 -70 0z"/>
 <path d="M502 1453 c-5 -10 -10 -74 -10 -143 0 -69 -5 -149 -11 -179 -15 -73 -14 -205 3 -266 48 -182 199 -333 381 -381 64 -18 206 -18 270 0 85 22 166 68 232 131 68 65 79 97 45 128 -29 27 -46 21 -106 -39 -105 -103 -249 -148 -383 -120 -182 38 -301 157 -339 339 -13 62 -13 81 1 167 8 54 15 154 15 222 0 108 -2 127 -18 141 -24 22 -69 22 -80 0z"/>
 <path d="M58 1343 c-25 -30 -28 -40 -43 -130 -27 -164 -12 -474 25 -518 17 -20 69 -16 84 7 7 12 5 42 -9 110 -26 125 -24 275 4 391 26 108 26 119 3 140 -24 22 -45 21 -64 0z"/>
 <path d="M1788 1170 c-11 -7 -18 -30 -23 -78 -31 -314 -91 -469 -239 -618 -201 -201 -493 -269 -762 -179 -81 27 -107 26 -125 -7 -16 -30 3 -64 48 -83 135 -57 356 -72 513 -35 237 57 459 235 565 455 52 108 69 166 90 306 18 128 19 221 3 237 -14 14 -47 15 -70 2z"/>
 <path d="M1927 1012 c-9 -10 -20 -51 -26 -97 -13 -109 -27 -167 -58 -245 -108 -273 -336 -474 -619 -546 -54 -13 -103 -29 -111 -36 -8 -6 -13 -25 -11 -42 l3 -31 81 2 c235 6 532 208 686 465 83 139 128 302 128 463 0 53 -3 66 -19 75 -27 14 -35 13 -54 -8z"/>
 <path d="M97 612 c-25 -27 -22 -39 27 -122 119 -202 310 -362 523 -439 88 -32 239 -55 328 -50 59 4 60 5 63 35 2 17 -3 36 -10 42 -7 5 -56 15 -108 21 -311 35 -554 191 -707 454 -39 67 -48 77 -72 77 -15 0 -35 -8 -44 -18z"/>
 </g>

</svg>